<svg width="11" height="15" viewBox="0 0 11 15" fill="none" xmlns="http://www.w3.org/2000/svg">
<path d="M8.75734 3.05176e-05H1.72234C0.891056 3.05176e-05 0.214844 0.628133 0.214844 1.40028V13.5358C0.214844 14.3079 0.891056 14.936 1.72234 14.936H8.75734C9.58863 14.936 10.2648 14.3079 10.2648 13.5358V1.40028C10.2648 0.628133 9.58863 3.05176e-05 8.75734 3.05176e-05ZM1.72234 0.933529H8.75734C9.0346 0.933529 9.25984 1.14275 9.25984 1.40028V11.202H1.21984V1.40028C1.21984 1.14275 1.44509 0.933529 1.72234 0.933529ZM8.75734 14.0025H1.72234C1.44509 14.0025 1.21984 13.7933 1.21984 13.5358V12.1355H9.25984V13.5358C9.25984 13.7933 9.0346 14.0025 8.75734 14.0025Z" fill="#757575"/>
<path d="M2.58047 12.739C2.77672 12.9214 2.77672 13.217 2.58047 13.3993C2.38423 13.5817 2.06608 13.5817 1.86984 13.3993C1.6736 13.217 1.6736 12.9214 1.86984 12.739C2.06608 12.5567 2.38423 12.5567 2.58047 12.739Z" fill="#757575"/>
</svg>
